<svg width="325" height="354" viewBox="0 0 325 354" fill="none" xmlns="http://www.w3.org/2000/svg">
<path d="M162.5 67.5C237.058 67.5 297.5 127.942 297.5 202.5C297.5 222.139 290.075 235.681 278.694 245.114C267.205 254.637 251.515 260.106 234.87 263.102C201.469 269.113 165.678 265 154.5 265C143.352 265 109.547 268.609 79.1912 262.364C64.0608 259.252 50.1758 253.748 40.5798 244.404C31.0968 235.171 25.5551 221.949 27.4871 202.75L27.4998 202.625V202.5C27.4998 127.942 87.9414 67.5001 162.5 67.5Z" fill="#8FCBFF" stroke="black" stroke-width="5"/>
<rect x="2.5" y="231.5" width="320" height="45" rx="22.5" fill="#9759EB" stroke="black" stroke-width="5"/>
<circle cx="37.5" cy="253.5" r="7.5" fill="black"/>
<circle cx="87.5" cy="253.5" r="7.5" fill="black"/>
<circle cx="137.5" cy="253.5" r="7.5" fill="black"/>
<circle cx="187.5" cy="253.5" r="7.5" fill="black"/>
<circle cx="237.5" cy="253.5" r="7.5" fill="black"/>
<circle cx="287.5" cy="253.5" r="7.5" fill="black"/>
<rect x="152.5" y="35.5" width="20" height="30" fill="black" stroke="black" stroke-width="5"/>
<circle cx="163" cy="20" r="17.5" fill="#63F0D8" stroke="black" stroke-width="5"/>
<path d="M163 97.5C186.542 97.5 207.758 104.578 223.029 115.899C238.301 127.222 247.5 142.665 247.5 159.5C247.5 176.335 238.301 191.778 223.029 203.101C207.758 214.422 186.542 221.5 163 221.5C139.458 221.5 118.242 214.422 102.971 203.101C87.6988 191.778 78.5 176.335 78.5 159.5C78.5 142.665 87.6988 127.222 102.971 115.899C118.242 104.578 139.458 97.5 163 97.5Z" fill="#D6E7F8" stroke="black" stroke-width="5"/>
<path d="M162.5 117.5C179.681 117.5 193.811 121.452 203.56 127.653C213.301 133.85 218.5 142.147 218.5 151C218.5 159.929 213.115 168.492 203.78 172.126C194.479 175.747 180.731 174.637 163.928 162.947L162.415 161.896L160.963 163.028C146.766 174.097 133.539 175.271 124.061 171.738C114.484 168.169 108.5 159.777 108.5 151C108.5 142.057 113.293 133.772 122.488 127.622C131.715 121.451 145.319 117.5 162.5 117.5Z" fill="black" stroke="black" stroke-width="5"/>
<path d="M124.5 188.5C131.057 188.5 136.895 190.483 141.037 193.569C145.179 196.655 147.5 200.724 147.5 205C147.5 209.276 145.179 213.345 141.037 216.431C136.895 219.517 131.057 221.5 124.5 221.5C117.943 221.5 112.105 219.517 107.963 216.431C103.821 213.345 101.5 209.276 101.5 205C101.5 200.724 103.821 196.655 107.963 193.569C112.105 190.483 117.943 188.5 124.5 188.5Z" fill="#D6E7F8" stroke="black" stroke-width="5"/>
<path d="M200.5 188.5C207.057 188.5 212.895 190.483 217.037 193.569C221.179 196.655 223.5 200.724 223.5 205C223.5 209.276 221.179 213.345 217.037 216.431C212.895 219.517 207.057 221.5 200.5 221.5C193.943 221.5 188.105 219.517 183.963 216.431C179.821 213.345 177.5 209.276 177.5 205C177.5 200.724 179.821 196.655 183.963 193.569C188.105 190.483 193.943 188.5 200.5 188.5Z" fill="#D6E7F8" stroke="black" stroke-width="5"/>
<ellipse cx="136.5" cy="149.5" rx="6.5" ry="10.5" fill="#63F0D8"/>
<ellipse cx="189.5" cy="149.5" rx="6.5" ry="10.5" fill="#63F0D8"/>
<path d="M41.1484 334.352C39.1797 334.352 37.4453 334.156 35.9453 333.766C34.4609 333.359 33.3203 332.867 32.5234 332.289C31.7422 331.711 31.3516 331.164 31.3516 330.648C31.3516 330.242 31.5 329.742 31.7969 329.148C32.1094 328.555 32.4766 328.047 32.8984 327.625C33.3203 327.188 33.6719 326.969 33.9531 326.969C34.125 326.969 34.4922 327.117 35.0547 327.414C35.8984 327.852 36.6953 328.203 37.4453 328.469C38.2109 328.734 39.0859 328.867 40.0703 328.867C41.1641 328.867 42.0859 328.656 42.8359 328.234C43.6016 327.797 43.9844 327.039 43.9844 325.961C43.9844 325.336 43.7891 324.797 43.3984 324.344C43.0078 323.891 42.5078 323.508 41.8984 323.195C41.2891 322.883 40.4609 322.516 39.4141 322.094L37.5625 321.297C36.4375 320.75 35.4688 320.148 34.6562 319.492C33.8594 318.836 33.2031 317.969 32.6875 316.891C32.1875 315.812 31.9375 314.492 31.9375 312.93C31.9375 311.023 32.4062 309.438 33.3438 308.172C34.2812 306.906 35.5 305.977 37 305.383C38.5 304.789 40.1094 304.492 41.8281 304.492C43.2344 304.492 44.5078 304.641 45.6484 304.938C46.7891 305.219 47.6797 305.586 48.3203 306.039C48.9766 306.492 49.3047 306.945 49.3047 307.398C49.3047 307.773 49.1797 308.258 48.9297 308.852C48.6953 309.43 48.3984 309.938 48.0391 310.375C47.6797 310.812 47.3438 311.031 47.0312 311.031C46.8906 311.031 46.6406 310.953 46.2812 310.797C45.7031 310.562 45.1172 310.375 44.5234 310.234C43.9453 310.078 43.2344 310 42.3906 310C40.9375 310 39.9297 310.234 39.3672 310.703C38.8047 311.156 38.5234 311.695 38.5234 312.32C38.5234 313.039 38.7109 313.641 39.0859 314.125C39.4766 314.609 39.9609 315.008 40.5391 315.32C41.1328 315.633 41.9531 315.992 43 316.398C44.5781 317.07 45.8672 317.711 46.8672 318.32C47.8672 318.914 48.7266 319.773 49.4453 320.898C50.1797 322.023 50.5469 323.461 50.5469 325.211C50.5469 327.352 50.0938 329.109 49.1875 330.484C48.2969 331.844 47.1406 332.828 45.7188 333.438C44.3125 334.047 42.7891 334.352 41.1484 334.352ZM66.5312 334.352C63.6875 334.352 61.2656 333.773 59.2656 332.617C57.2812 331.461 55.7656 329.773 54.7188 327.555C53.6875 325.32 53.1719 322.602 53.1719 319.398C53.1719 316.211 53.6875 313.508 54.7188 311.289C55.7656 309.055 57.2812 307.367 59.2656 306.227C61.2656 305.07 63.6875 304.492 66.5312 304.492C69.3906 304.492 71.8125 305.07 73.7969 306.227C75.7969 307.367 77.3125 309.055 78.3438 311.289C79.375 313.508 79.8906 316.211 79.8906 319.398C79.8906 322.602 79.375 325.32 78.3438 327.555C77.3125 329.773 75.7969 331.461 73.7969 332.617C71.8125 333.773 69.3906 334.352 66.5312 334.352ZM66.5312 328.867C68.7656 328.867 70.4531 328.062 71.5938 326.453C72.7344 324.828 73.3047 322.477 73.3047 319.398C73.3047 316.32 72.7344 313.984 71.5938 312.391C70.4531 310.797 68.7656 310 66.5312 310C64.3125 310 62.625 310.805 61.4688 312.414C60.3281 314.008 59.7578 316.336 59.7578 319.398C59.7578 322.477 60.3359 324.828 61.4922 326.453C62.6484 328.062 64.3281 328.867 66.5312 328.867ZM96.6016 334.352C94.0703 334.352 91.8984 333.953 90.0859 333.156C88.2891 332.359 86.9141 331.211 85.9609 329.711C85.0078 328.195 84.5312 326.375 84.5312 324.25V306.086C84.5312 305.633 84.7344 305.297 85.1406 305.078C85.5469 304.844 86.1797 304.727 87.0391 304.727H88.4453C89.3047 304.727 89.9297 304.844 90.3203 305.078C90.7266 305.297 90.9297 305.633 90.9297 306.086V323.828C90.9297 324.797 91.1641 325.664 91.6328 326.43C92.1172 327.195 92.7891 327.797 93.6484 328.234C94.5078 328.656 95.4922 328.867 96.6016 328.867C97.7109 328.867 98.6953 328.656 99.5547 328.234C100.43 327.797 101.109 327.195 101.594 326.43C102.078 325.664 102.32 324.797 102.32 323.828V306.086C102.32 305.633 102.516 305.297 102.906 305.078C103.312 304.844 103.945 304.727 104.805 304.727H106.188C107.047 304.727 107.672 304.844 108.062 305.078C108.469 305.297 108.672 305.633 108.672 306.086V324.25C108.672 326.375 108.195 328.195 107.242 329.711C106.289 331.211 104.906 332.359 103.094 333.156C101.297 333.953 99.1328 334.352 96.6016 334.352ZM115.984 334C115.406 334 114.984 333.867 114.719 333.602C114.453 333.336 114.32 332.914 114.32 332.336V306.086C114.32 305.633 114.523 305.297 114.93 305.078C115.336 304.844 115.969 304.727 116.828 304.727H118.234C119.094 304.727 119.727 304.844 120.133 305.078C120.539 305.297 120.742 305.633 120.742 306.086V328.539H130.023C130.461 328.539 130.773 328.703 130.961 329.031C131.164 329.359 131.266 329.883 131.266 330.602V331.914C131.266 332.648 131.164 333.18 130.961 333.508C130.773 333.836 130.461 334 130.023 334H115.984ZM142.305 334.352C140.336 334.352 138.602 334.156 137.102 333.766C135.617 333.359 134.477 332.867 133.68 332.289C132.898 331.711 132.508 331.164 132.508 330.648C132.508 330.242 132.656 329.742 132.953 329.148C133.266 328.555 133.633 328.047 134.055 327.625C134.477 327.188 134.828 326.969 135.109 326.969C135.281 326.969 135.648 327.117 136.211 327.414C137.055 327.852 137.852 328.203 138.602 328.469C139.367 328.734 140.242 328.867 141.227 328.867C142.32 328.867 143.242 328.656 143.992 328.234C144.758 327.797 145.141 327.039 145.141 325.961C145.141 325.336 144.945 324.797 144.555 324.344C144.164 323.891 143.664 323.508 143.055 323.195C142.445 322.883 141.617 322.516 140.57 322.094L138.719 321.297C137.594 320.75 136.625 320.148 135.812 319.492C135.016 318.836 134.359 317.969 133.844 316.891C133.344 315.812 133.094 314.492 133.094 312.93C133.094 311.023 133.562 309.438 134.5 308.172C135.438 306.906 136.656 305.977 138.156 305.383C139.656 304.789 141.266 304.492 142.984 304.492C144.391 304.492 145.664 304.641 146.805 304.938C147.945 305.219 148.836 305.586 149.477 306.039C150.133 306.492 150.461 306.945 150.461 307.398C150.461 307.773 150.336 308.258 150.086 308.852C149.852 309.43 149.555 309.938 149.195 310.375C148.836 310.812 148.5 311.031 148.188 311.031C148.047 311.031 147.797 310.953 147.438 310.797C146.859 310.562 146.273 310.375 145.68 310.234C145.102 310.078 144.391 310 143.547 310C142.094 310 141.086 310.234 140.523 310.703C139.961 311.156 139.68 311.695 139.68 312.32C139.68 313.039 139.867 313.641 140.242 314.125C140.633 314.609 141.117 315.008 141.695 315.32C142.289 315.633 143.109 315.992 144.156 316.398C145.734 317.07 147.023 317.711 148.023 318.32C149.023 318.914 149.883 319.773 150.602 320.898C151.336 322.023 151.703 323.461 151.703 325.211C151.703 327.352 151.25 329.109 150.344 330.484C149.453 331.844 148.297 332.828 146.875 333.438C145.469 334.047 143.945 334.352 142.305 334.352ZM163.164 334.07C161.492 334.07 160.656 333.633 160.656 332.758V310.281H154.047C153.609 310.281 153.289 310.117 153.086 309.789C152.898 309.461 152.805 308.93 152.805 308.195V306.93C152.805 306.195 152.898 305.664 153.086 305.336C153.289 305.008 153.609 304.844 154.047 304.844H173.758C174.195 304.844 174.508 305.008 174.695 305.336C174.898 305.664 175 306.195 175 306.93V308.195C175 308.93 174.898 309.461 174.695 309.789C174.508 310.117 174.195 310.281 173.758 310.281H167.125V332.758C167.125 333.633 166.289 334.07 164.617 334.07H163.164ZM176.195 334.07C174.492 334.07 173.641 333.766 173.641 333.156C173.641 332.984 173.695 332.734 173.805 332.406L182.992 305.617C183.211 305.023 184 304.727 185.359 304.727H187.516C188.875 304.727 189.664 305.023 189.883 305.617L199.07 332.406C199.148 332.719 199.188 332.969 199.188 333.156C199.188 333.469 199.016 333.703 198.672 333.859C198.344 334 197.82 334.07 197.102 334.07H195.273C194.617 334.07 194.086 334.008 193.68 333.883C193.289 333.742 193.047 333.516 192.953 333.203L191.266 328.117H181.445L179.758 333.203C179.586 333.781 178.945 334.07 177.836 334.07H176.195ZM189.484 322.609L187.117 315.203C186.977 314.828 186.852 314.398 186.742 313.914C186.648 313.43 186.562 312.969 186.484 312.531H186.32L186.227 313.047C186.07 313.969 185.891 314.688 185.688 315.203L183.227 322.609H189.484ZM208.211 334.07C206.539 334.07 205.703 333.633 205.703 332.758V310.281H199.094C198.656 310.281 198.336 310.117 198.133 309.789C197.945 309.461 197.852 308.93 197.852 308.195V306.93C197.852 306.195 197.945 305.664 198.133 305.336C198.336 305.008 198.656 304.844 199.094 304.844H218.805C219.242 304.844 219.555 305.008 219.742 305.336C219.945 305.664 220.047 306.195 220.047 306.93V308.195C220.047 308.93 219.945 309.461 219.742 309.789C219.555 310.117 219.242 310.281 218.805 310.281H212.172V332.758C212.172 333.633 211.336 334.07 209.664 334.07H208.211ZM225.508 334.117C224.664 334.117 224.031 334 223.609 333.766C223.203 333.531 223 333.195 223 332.758V306.086C223 305.164 223.836 304.703 225.508 304.703H226.961C227.82 304.703 228.445 304.82 228.836 305.055C229.242 305.289 229.445 305.633 229.445 306.086V332.758C229.445 333.664 228.617 334.117 226.961 334.117H225.508ZM247.375 334.352C244.531 334.352 242.109 333.773 240.109 332.617C238.125 331.461 236.609 329.773 235.562 327.555C234.531 325.32 234.016 322.602 234.016 319.398C234.016 316.211 234.531 313.508 235.562 311.289C236.609 309.055 238.125 307.367 240.109 306.227C242.109 305.07 244.531 304.492 247.375 304.492C250.234 304.492 252.656 305.07 254.641 306.227C256.641 307.367 258.156 309.055 259.188 311.289C260.219 313.508 260.734 316.211 260.734 319.398C260.734 322.602 260.219 325.32 259.188 327.555C258.156 329.773 256.641 331.461 254.641 332.617C252.656 333.773 250.234 334.352 247.375 334.352ZM247.375 328.867C249.609 328.867 251.297 328.062 252.438 326.453C253.578 324.828 254.148 322.477 254.148 319.398C254.148 316.32 253.578 313.984 252.438 312.391C251.297 310.797 249.609 310 247.375 310C245.156 310 243.469 310.805 242.312 312.414C241.172 314.008 240.602 316.336 240.602 319.398C240.602 322.477 241.18 324.828 242.336 326.453C243.492 328.062 245.172 328.867 247.375 328.867ZM268 334.07C266.328 334.07 265.492 333.633 265.492 332.758V306.086C265.492 305.633 265.695 305.297 266.102 305.078C266.508 304.844 267.141 304.727 268 304.727H269.781C270.453 304.727 271.008 304.805 271.445 304.961C271.883 305.117 272.242 305.422 272.523 305.875L282.367 321.039L283.492 322.727V306.086C283.492 305.633 283.695 305.297 284.102 305.078C284.508 304.844 285.141 304.727 286 304.727H287.195C288.055 304.727 288.68 304.844 289.07 305.078C289.477 305.297 289.68 305.633 289.68 306.086V332.758C289.68 333.633 288.852 334.07 287.195 334.07H285.602C284.914 334.07 284.359 334 283.938 333.859C283.516 333.703 283.164 333.406 282.883 332.969L272.57 317.195L271.68 315.883V332.758C271.68 333.633 270.852 334.07 269.195 334.07H268Z" fill="#8FCBFF"/>
</svg>
